<?plantuml 1.2026.2?><svg xmlns="http://www.w3.org/2000/svg" xmlns:xlink="http://www.w3.org/1999/xlink" contentStyleType="text/css" data-diagram-type="SEQUENCE" height="593px" preserveAspectRatio="none" style="width:999px;height:593px;background:#FFFFFF;" version="1.1" viewBox="0 0 999 593" width="999px" zoomAndPan="magnify"><title>Birthday Greetings &#8212; Happy Path</title><defs/><g><text fill="#000000" font-family="sans-serif" font-size="14" font-weight="bold" lengthAdjust="spacing" textLength="234.9331" x="383.8041" y="29.9659">Birthday Greetings &#8212; Happy Path</text><rect fill="none" height="178.2361" style="stroke:#000000;stroke-width:1.5;" width="909.0356" x="84.5057" y="285.6659"/><g class="participant-lifeline" data-entity-uid="part1" data-qualified-name="sched" id="part1-lifeline"><g><title>Scheduler</title><rect fill="#000000" fill-opacity="0.00000" height="402.4722" width="8" x="40.7529" y="110.1358"/><line style="stroke:#181818;stroke-width:0.5;stroke-dasharray:5,5;" x1="44" x2="44" y1="110.1358" y2="512.608"/></g></g><g class="participant-lifeline" data-entity-uid="part2" data-qualified-name="main" id="part2-lifeline"><g><title>main.py</title><rect fill="#000000" fill-opacity="0.00000" height="402.4722" width="8" x="123.8606" y="110.1358"/><line style="stroke:#181818;stroke-width:0.5;stroke-dasharray:5,5;" x1="127.5057" x2="127.5057" y1="110.1358" y2="512.608"/></g></g><g class="participant-lifeline" data-entity-uid="part3" data-qualified-name="repo" id="part3-lifeline"><g><title>ContactRepository</title><rect fill="#000000" fill-opacity="0.00000" height="402.4722" width="8" x="324.3488" y="110.1358"/><line style="stroke:#181818;stroke-width:0.5;stroke-dasharray:5,5;" x1="327.799" x2="327.799" y1="110.1358" y2="512.608"/></g></g><g class="participant-lifeline" data-entity-uid="part4" data-qualified-name="db" id="part4-lifeline"><g><title>SQLite</title><rect fill="#000000" fill-opacity="0.00000" height="402.4722" width="8" x="559.43" y="110.1358"/><line style="stroke:#181818;stroke-width:0.5;stroke-dasharray:5,5;" x1="563.1711" x2="563.1711" y1="110.1358" y2="512.608"/></g></g><g class="participant-lifeline" data-entity-uid="part5" data-qualified-name="svc" id="part5-lifeline"><g><title>GreetingService</title><rect fill="#000000" fill-opacity="0.00000" height="402.4722" width="8" x="652.8878" y="110.1358"/><line style="stroke:#181818;stroke-width:0.5;stroke-dasharray:5,5;" x1="656.689" x2="656.689" y1="110.1358" y2="512.608"/></g></g><g class="participant-lifeline" data-entity-uid="part6" data-qualified-name="sender" id="part6-lifeline"><g><title>EmailSender</title><rect fill="#000000" fill-opacity="0.00000" height="402.4722" width="8" x="770.3234" y="110.1358"/><line style="stroke:#181818;stroke-width:0.5;stroke-dasharray:5,5;" x1="774.0865" x2="774.0865" y1="110.1358" y2="512.608"/></g></g><g class="participant-lifeline" data-entity-uid="part7" data-qualified-name="ext" id="part7-lifeline"><g><title>Email Service</title><rect fill="#000000" fill-opacity="0.00000" height="402.4722" width="8" x="929.3935" y="110.1358"/><line style="stroke:#181818;stroke-width:0.5;stroke-dasharray:5,5;" x1="933.2457" x2="933.2457" y1="110.1358" y2="512.608"/></g></g><g class="participant participant-head" data-entity-uid="part1" data-qualified-name="sched" id="part1-head"><rect fill="#E2E2F0" height="33.0679" rx="2.5" ry="2.5" style="stroke:#181818;stroke-width:0.5;" width="79.5057" x="5" y="76.0679"/><text fill="#000000" font-family="sans-serif" font-size="14" lengthAdjust="spacing" textLength="65.5057" x="12" y="98.0339">Scheduler</text></g><g class="participant participant-tail" data-entity-uid="part1" data-qualified-name="sched" id="part1-tail"><rect fill="#E2E2F0" height="33.0679" rx="2.5" ry="2.5" style="stroke:#181818;stroke-width:0.5;" width="79.5057" x="5" y="511.608"/><text fill="#000000" font-family="sans-serif" font-size="14" lengthAdjust="spacing" textLength="65.5057" x="12" y="533.574">Scheduler</text></g><g class="participant participant-head" data-entity-uid="part2" data-qualified-name="main" id="part2-head"><rect fill="#E2E2F0" height="33.0679" rx="2.5" ry="2.5" style="stroke:#181818;stroke-width:0.5;" width="66.7098" x="94.5057" y="76.0679"/><text fill="#000000" font-family="sans-serif" font-size="14" lengthAdjust="spacing" textLength="52.7098" x="101.5057" y="98.0339">main.py</text></g><g class="participant participant-tail" data-entity-uid="part2" data-qualified-name="main" id="part2-tail"><rect fill="#E2E2F0" height="33.0679" rx="2.5" ry="2.5" style="stroke:#181818;stroke-width:0.5;" width="66.7098" x="94.5057" y="511.608"/><text fill="#000000" font-family="sans-serif" font-size="14" lengthAdjust="spacing" textLength="52.7098" x="101.5057" y="533.574">main.py</text></g><g class="participant participant-head" data-entity-uid="part3" data-qualified-name="repo" id="part3-head"><rect fill="#E2E2F0" height="33.0679" rx="2.5" ry="2.5" style="stroke:#181818;stroke-width:0.5;" width="135.0995" x="260.799" y="76.0679"/><text fill="#000000" font-family="sans-serif" font-size="14" lengthAdjust="spacing" textLength="121.0995" x="267.799" y="98.0339">ContactRepository</text></g><g class="participant participant-tail" data-entity-uid="part3" data-qualified-name="repo" id="part3-tail"><rect fill="#E2E2F0" height="33.0679" rx="2.5" ry="2.5" style="stroke:#181818;stroke-width:0.5;" width="135.0995" x="260.799" y="511.608"/><text fill="#000000" font-family="sans-serif" font-size="14" lengthAdjust="spacing" textLength="121.0995" x="267.799" y="533.574">ContactRepository</text></g><g class="participant participant-head" data-entity-uid="part4" data-qualified-name="db" id="part4-head"><text fill="#000000" font-family="sans-serif" font-size="14" lengthAdjust="spacing" textLength="42.5178" x="539.1711" y="106.0339">SQLite</text><path d="M545.43,55.0679 C545.43,45.0679 563.43,45.0679 563.43,45.0679 C563.43,45.0679 581.43,45.0679 581.43,55.0679 L581.43,81.0679 C581.43,91.0679 563.43,91.0679 563.43,91.0679 C563.43,91.0679 545.43,91.0679 545.43,81.0679 L545.43,55.0679" fill="#E2E2F0" style="stroke:#181818;stroke-width:0.5;"/><path d="M545.43,55.0679 C545.43,65.0679 563.43,65.0679 563.43,65.0679 C563.43,65.0679 581.43,65.0679 581.43,55.0679" fill="none" style="stroke:#181818;stroke-width:0.5;"/></g><g class="participant participant-tail" data-entity-uid="part4" data-qualified-name="db" id="part4-tail"><text fill="#000000" font-family="sans-serif" font-size="14" lengthAdjust="spacing" textLength="42.5178" x="539.1711" y="526.574">SQLite</text><path d="M545.43,540.6759 C545.43,530.6759 563.43,530.6759 563.43,530.6759 C563.43,530.6759 581.43,530.6759 581.43,540.6759 L581.43,566.6759 C581.43,576.6759 563.43,576.6759 563.43,576.6759 C563.43,576.6759 545.43,576.6759 545.43,566.6759 L545.43,540.6759" fill="#E2E2F0" style="stroke:#181818;stroke-width:0.5;"/><path d="M545.43,540.6759 C545.43,550.6759 563.43,550.6759 563.43,550.6759 C563.43,550.6759 581.43,550.6759 581.43,540.6759" fill="none" style="stroke:#181818;stroke-width:0.5;"/></g><g class="participant participant-head" data-entity-uid="part5" data-qualified-name="svc" id="part5-head"><rect fill="#E2E2F0" height="33.0679" rx="2.5" ry="2.5" style="stroke:#181818;stroke-width:0.5;" width="118.3976" x="597.689" y="76.0679"/><text fill="#000000" font-family="sans-serif" font-size="14" lengthAdjust="spacing" textLength="104.3976" x="604.689" y="98.0339">GreetingService</text></g><g class="participant participant-tail" data-entity-uid="part5" data-qualified-name="svc" id="part5-tail"><rect fill="#E2E2F0" height="33.0679" rx="2.5" ry="2.5" style="stroke:#181818;stroke-width:0.5;" width="118.3976" x="597.689" y="511.608"/><text fill="#000000" font-family="sans-serif" font-size="14" lengthAdjust="spacing" textLength="104.3976" x="604.689" y="533.574">GreetingService</text></g><g class="participant participant-head" data-entity-uid="part6" data-qualified-name="sender" id="part6-head"><rect fill="#E2E2F0" height="33.0679" rx="2.5" ry="2.5" style="stroke:#181818;stroke-width:0.5;" width="96.4737" x="726.0865" y="76.0679"/><text fill="#000000" font-family="sans-serif" font-size="14" lengthAdjust="spacing" textLength="82.4737" x="733.0865" y="98.0339">EmailSender</text></g><g class="participant participant-tail" data-entity-uid="part6" data-qualified-name="sender" id="part6-tail"><rect fill="#E2E2F0" height="33.0679" rx="2.5" ry="2.5" style="stroke:#181818;stroke-width:0.5;" width="96.4737" x="726.0865" y="511.608"/><text fill="#000000" font-family="sans-serif" font-size="14" lengthAdjust="spacing" textLength="82.4737" x="733.0865" y="533.574">EmailSender</text></g><g class="participant participant-head" data-entity-uid="part7" data-qualified-name="ext" id="part7-head"><rect fill="#E2E2F0" height="33.0679" rx="2.5" ry="2.5" style="stroke:#181818;stroke-width:0.5;" width="100.2957" x="883.2457" y="76.0679"/><text fill="#000000" font-family="sans-serif" font-size="14" lengthAdjust="spacing" textLength="86.2957" x="890.2457" y="98.0339">Email Service</text></g><g class="participant participant-tail" data-entity-uid="part7" data-qualified-name="ext" id="part7-tail"><rect fill="#E2E2F0" height="33.0679" rx="2.5" ry="2.5" style="stroke:#181818;stroke-width:0.5;" width="100.2957" x="883.2457" y="511.608"/><text fill="#000000" font-family="sans-serif" font-size="14" lengthAdjust="spacing" textLength="86.2957" x="890.2457" y="533.574">Email Service</text></g><g class="message" data-entity-1="part1" data-entity-2="part2" id="msg1"><polygon fill="#181818" points="115.8606,139.8419,125.8606,143.8419,115.8606,147.8419,119.8606,143.8419" style="stroke:#181818;stroke-width:1;"/><line style="stroke:#181818;stroke-width:1;" x1="44.7529" x2="121.8606" y1="143.8419" y2="143.8419"/><text fill="#000000" font-family="sans-serif" font-size="13" lengthAdjust="spacing" textLength="42.107" x="51.7529" y="138.0328">trigger</text></g><g class="message" data-entity-1="part2" data-entity-2="part3" id="msg2"><polygon fill="#181818" points="316.3488,171.5479,326.3488,175.5479,316.3488,179.5479,320.3488,175.5479" style="stroke:#181818;stroke-width:1;"/><line style="stroke:#181818;stroke-width:1;" x1="127.8606" x2="322.3488" y1="175.5479" y2="175.5479"/><text fill="#000000" font-family="sans-serif" font-size="13" lengthAdjust="spacing" textLength="176.4882" x="134.8606" y="169.7389">get_birthday_contacts(today)</text></g><g class="message" data-entity-1="part3" data-entity-2="part4" id="msg3"><polygon fill="#181818" points="551.43,203.2539,561.43,207.2539,551.43,211.2539,555.43,207.2539" style="stroke:#181818;stroke-width:1;"/><line style="stroke:#181818;stroke-width:1;" x1="328.3488" x2="557.43" y1="207.2539" y2="207.2539"/><text fill="#000000" font-family="sans-serif" font-size="13" lengthAdjust="spacing" textLength="211.0812" x="335.3488" y="201.4449">SELECT WHERE month/day = today</text></g><g class="message" data-entity-1="part4" data-entity-2="part3" id="msg4"><polygon fill="#181818" points="339.3488,234.9599,329.3488,238.9599,339.3488,242.9599,335.3488,238.9599" style="stroke:#181818;stroke-width:1;"/><line style="stroke:#181818;stroke-width:1;stroke-dasharray:2,2;" x1="333.3488" x2="562.43" y1="238.9599" y2="238.9599"/><text fill="#000000" font-family="sans-serif" font-size="13" lengthAdjust="spacing" textLength="29.679" x="345.3488" y="233.1509">rows</text></g><g class="message" data-entity-1="part3" data-entity-2="part2" id="msg5"><polygon fill="#181818" points="138.8606,266.6659,128.8606,270.6659,138.8606,274.6659,134.8606,270.6659" style="stroke:#181818;stroke-width:1;"/><line style="stroke:#181818;stroke-width:1;stroke-dasharray:2,2;" x1="132.8606" x2="327.3488" y1="270.6659" y2="270.6659"/><text fill="#000000" font-family="sans-serif" font-size="13" lengthAdjust="spacing" textLength="72.9041" x="144.8606" y="264.8569">[Contact, ...]</text></g><path d="M84.5057,285.6659 L157.7938,285.6659 L157.7938,295.3719 L147.7938,305.3719 L84.5057,305.3719 L84.5057,285.6659" fill="#EEEEEE" style="stroke:#000000;stroke-width:1.5;"/><rect fill="none" height="178.2361" style="stroke:#000000;stroke-width:1.5;" width="909.0356" x="84.5057" y="285.6659"/><text fill="#000000" font-family="sans-serif" font-size="13" font-weight="bold" lengthAdjust="spacing" textLength="28.288" x="99.5057" y="300.5629">loop</text><text fill="#000000" font-family="sans-serif" font-size="11" font-weight="bold" lengthAdjust="spacing" textLength="96.6233" x="172.7938" y="299.4248">[for each contact]</text><g class="message" data-entity-1="part2" data-entity-2="part5" id="msg6"><polygon fill="#181818" points="644.8878,325.0779,654.8878,329.0779,644.8878,333.0779,648.8878,329.0779" style="stroke:#181818;stroke-width:1;"/><line style="stroke:#181818;stroke-width:1;" x1="127.8606" x2="650.8878" y1="329.0779" y2="329.0779"/><text fill="#000000" font-family="sans-serif" font-size="13" lengthAdjust="spacing" textLength="108.5371" x="134.8606" y="323.2689">compose(contact)</text></g><g class="message" data-entity-1="part5" data-entity-2="part2" id="msg7"><polygon fill="#181818" points="138.8606,356.784,128.8606,360.784,138.8606,364.784,134.8606,360.784" style="stroke:#181818;stroke-width:1;"/><line style="stroke:#181818;stroke-width:1;stroke-dasharray:2,2;" x1="132.8606" x2="655.8878" y1="360.784" y2="360.784"/><text fill="#000000" font-family="sans-serif" font-size="13" lengthAdjust="spacing" textLength="54.197" x="144.8606" y="354.975">Message</text></g><g class="message" data-entity-1="part2" data-entity-2="part6" id="msg8"><polygon fill="#181818" points="762.3234,388.49,772.3234,392.49,762.3234,396.49,766.3234,392.49" style="stroke:#181818;stroke-width:1;"/><line style="stroke:#181818;stroke-width:1;" x1="127.8606" x2="768.3234" y1="392.49" y2="392.49"/><text fill="#000000" font-family="sans-serif" font-size="13" lengthAdjust="spacing" textLength="91.9491" x="134.8606" y="386.681">send(message)</text></g><g class="message" data-entity-1="part6" data-entity-2="part7" id="msg9"><polygon fill="#181818" points="921.3935,420.196,931.3935,424.196,921.3935,428.196,925.3935,424.196" style="stroke:#181818;stroke-width:1;"/><line style="stroke:#181818;stroke-width:1;" x1="774.3234" x2="927.3935" y1="424.196" y2="424.196"/><text fill="#000000" font-family="sans-serif" font-size="13" lengthAdjust="spacing" textLength="135.0701" x="781.3234" y="418.387">SMTP / HTTPS request</text></g><g class="message" data-entity-1="part7" data-entity-2="part6" id="msg10"><polygon fill="#181818" points="785.3234,451.902,775.3234,455.902,785.3234,459.902,781.3234,455.902" style="stroke:#181818;stroke-width:1;"/><line style="stroke:#181818;stroke-width:1;stroke-dasharray:2,2;" x1="779.3234" x2="932.3935" y1="455.902" y2="455.902"/><text fill="#000000" font-family="sans-serif" font-size="13" lengthAdjust="spacing" textLength="43.888" x="791.3234" y="450.093">200 OK</text></g><g class="message" data-entity-1="part2" data-entity-2="part1" id="msg11"><polygon fill="#181818" points="55.7529,490.608,45.7529,494.608,55.7529,498.608,51.7529,494.608" style="stroke:#181818;stroke-width:1;"/><line style="stroke:#181818;stroke-width:1;stroke-dasharray:2,2;" x1="49.7529" x2="126.8606" y1="494.608" y2="494.608"/><text fill="#000000" font-family="sans-serif" font-size="13" lengthAdjust="spacing" textLength="33.072" x="61.7529" y="488.799">exit 0</text></g><?plantuml-src RP31IiD048Rl-nI3fnPiMZmMz6095conDW4F8cMp6PE591jtfzNUV0YVq2TnTfFI5BpjxF_Dp3y_QQeGxhMbCfT7UB28f9l2mU_t3onbsnvX8waKefMMjDAjR0Yk4bLYlg_GNe5qu7nr2THIDr5x3B9_NweBqv1KjCNME4t6TfpbKkIIP2OTyexdbIOCIfvTzfzS9cWFMdMCEwXBAEQzLO9DVd8PdlymC1o3NoH4E0WcTy4wp86iBWhk3IL_UwVyNI3jiZwvdUfkSYCoN8v5O9ZDCoQJU1KlKdXPnjiOQYRBgK_x5W8ic9cSnrhpwVhsiuNNFhDhYABeJOZAc1RUZGMKgeH-kG0uMUGuk4kPcYF6KQ-F6V32OEuQdPC53Zj3JYpvnwZkzD3P2OnmIFweTRg1AIpJT9EmzuyzEk_0YvFXd9lP39uU1PUYJz2h8U8vqvfW9lu0?></g></svg>